<mxfile host="app.diagrams.net" modified="2020-12-09T23:16:18.744Z" agent="5.0 (Windows)" etag="wEM3CflEk8YBeWaWtPBn" version="13.10.9" type="github">
  <diagram name="Page-1" id="13e1069c-82ec-6db2-03f1-153e76fe0fe0">
    <mxGraphModel dx="868" dy="395" grid="1" gridSize="10" guides="1" tooltips="1" connect="1" arrows="1" fold="1" page="1" pageScale="1" pageWidth="850" pageHeight="1100" background="#ffffff" math="0" shadow="0">
      <root>
        <mxCell id="0" />
        <mxCell id="1" parent="0" />
        <mxCell id="cMqqj_3ld0ghQso-aE1y-4" value="GunSystem" style="rounded=0;whiteSpace=wrap;html=1;" parent="1" vertex="1">
          <mxGeometry x="420" y="35" width="120" height="60" as="geometry" />
        </mxCell>
        <mxCell id="cMqqj_3ld0ghQso-aE1y-5" value="Local Distributor" style="shape=umlActor;verticalLabelPosition=bottom;verticalAlign=top;html=1;outlineConnect=0;" parent="1" vertex="1">
          <mxGeometry x="660" y="25" width="30" height="70" as="geometry" />
        </mxCell>
        <mxCell id="cMqqj_3ld0ghQso-aE1y-11" value="" style="shape=umlActor;verticalLabelPosition=bottom;verticalAlign=top;html=1;outlineConnect=0;" parent="1" vertex="1">
          <mxGeometry x="290" y="25" width="30" height="60" as="geometry" />
        </mxCell>
        <mxCell id="cMqqj_3ld0ghQso-aE1y-12" value="" style="endArrow=none;dashed=1;html=1;" parent="1" source="cMqqj_3ld0ghQso-aE1y-15" edge="1">
          <mxGeometry width="50" height="50" relative="1" as="geometry">
            <mxPoint x="305" y="607.6666666666666" as="sourcePoint" />
            <mxPoint x="304.66999999999996" y="105" as="targetPoint" />
          </mxGeometry>
        </mxCell>
        <mxCell id="cMqqj_3ld0ghQso-aE1y-13" value="Policeman" style="text;html=1;strokeColor=none;fillColor=none;align=center;verticalAlign=middle;whiteSpace=wrap;rounded=0;" parent="1" vertex="1">
          <mxGeometry x="290" y="85" width="40" height="20" as="geometry" />
        </mxCell>
        <mxCell id="cMqqj_3ld0ghQso-aE1y-14" value="" style="endArrow=none;dashed=1;html=1;" parent="1" edge="1">
          <mxGeometry width="50" height="50" relative="1" as="geometry">
            <mxPoint x="675" y="1065" as="sourcePoint" />
            <mxPoint x="674.5" y="115" as="targetPoint" />
          </mxGeometry>
        </mxCell>
        <mxCell id="cMqqj_3ld0ghQso-aE1y-15" value="" style="html=1;points=[];perimeter=orthogonalPerimeter;" parent="1" vertex="1">
          <mxGeometry x="300" y="145" width="10" height="80" as="geometry" />
        </mxCell>
        <mxCell id="cMqqj_3ld0ghQso-aE1y-16" value="" style="endArrow=none;dashed=1;html=1;" parent="1" target="cMqqj_3ld0ghQso-aE1y-15" edge="1">
          <mxGeometry width="50" height="50" relative="1" as="geometry">
            <mxPoint x="305" y="1065" as="sourcePoint" />
            <mxPoint x="304.66999999999996" y="105" as="targetPoint" />
          </mxGeometry>
        </mxCell>
        <mxCell id="cMqqj_3ld0ghQso-aE1y-17" value="" style="endArrow=none;dashed=1;html=1;entryX=0.5;entryY=1;entryDx=0;entryDy=0;" parent="1" target="cMqqj_3ld0ghQso-aE1y-4" edge="1">
          <mxGeometry width="50" height="50" relative="1" as="geometry">
            <mxPoint x="480" y="1075" as="sourcePoint" />
            <mxPoint x="510" y="145" as="targetPoint" />
          </mxGeometry>
        </mxCell>
        <mxCell id="cMqqj_3ld0ghQso-aE1y-18" value="" style="html=1;points=[];perimeter=orthogonalPerimeter;" parent="1" vertex="1">
          <mxGeometry x="475" y="135" width="10" height="90" as="geometry" />
        </mxCell>
        <mxCell id="cMqqj_3ld0ghQso-aE1y-19" value="" style="endArrow=classic;html=1;exitX=1.4;exitY=0.521;exitDx=0;exitDy=0;exitPerimeter=0;" parent="1" source="cMqqj_3ld0ghQso-aE1y-15" edge="1">
          <mxGeometry width="50" height="50" relative="1" as="geometry">
            <mxPoint x="330" y="215" as="sourcePoint" />
            <mxPoint x="475" y="187" as="targetPoint" />
          </mxGeometry>
        </mxCell>
        <mxCell id="cMqqj_3ld0ghQso-aE1y-20" value="turnOn()" style="text;html=1;strokeColor=none;fillColor=none;align=center;verticalAlign=middle;whiteSpace=wrap;rounded=0;" parent="1" vertex="1">
          <mxGeometry x="360" y="165" width="40" height="20" as="geometry" />
        </mxCell>
        <mxCell id="cMqqj_3ld0ghQso-aE1y-21" value="par" style="shape=umlFrame;whiteSpace=wrap;html=1;" parent="1" vertex="1">
          <mxGeometry x="160" y="225" width="590" height="830" as="geometry" />
        </mxCell>
        <mxCell id="cMqqj_3ld0ghQso-aE1y-25" value="" style="html=1;points=[];perimeter=orthogonalPerimeter;" parent="1" vertex="1">
          <mxGeometry x="475" y="275" width="10" height="40" as="geometry" />
        </mxCell>
        <mxCell id="cMqqj_3ld0ghQso-aE1y-26" value="countChargeLevel()" style="edgeStyle=orthogonalEdgeStyle;html=1;align=left;spacingLeft=2;endArrow=block;rounded=0;entryX=1;entryY=0;" parent="1" target="cMqqj_3ld0ghQso-aE1y-25" edge="1">
          <mxGeometry relative="1" as="geometry">
            <mxPoint x="480" y="255" as="sourcePoint" />
            <Array as="points">
              <mxPoint x="505" y="255" />
            </Array>
          </mxGeometry>
        </mxCell>
        <mxCell id="cMqqj_3ld0ghQso-aE1y-27" value="countChargeLevel()" style="edgeStyle=orthogonalEdgeStyle;html=1;align=left;spacingLeft=2;endArrow=block;rounded=0;entryX=1;entryY=0;" parent="1" edge="1">
          <mxGeometry relative="1" as="geometry">
            <mxPoint x="480" y="255" as="sourcePoint" />
            <Array as="points">
              <mxPoint x="505" y="255" />
            </Array>
            <mxPoint x="485" y="275" as="targetPoint" />
          </mxGeometry>
        </mxCell>
        <mxCell id="cMqqj_3ld0ghQso-aE1y-28" value="" style="html=1;points=[];perimeter=orthogonalPerimeter;" parent="1" vertex="1">
          <mxGeometry x="475" y="345" width="10" height="40" as="geometry" />
        </mxCell>
        <mxCell id="cMqqj_3ld0ghQso-aE1y-29" value="&amp;nbsp;getCoordinates()" style="edgeStyle=orthogonalEdgeStyle;html=1;align=left;spacingLeft=2;endArrow=block;rounded=0;entryX=1;entryY=0;" parent="1" target="cMqqj_3ld0ghQso-aE1y-28" edge="1">
          <mxGeometry relative="1" as="geometry">
            <mxPoint x="480" y="325" as="sourcePoint" />
            <Array as="points">
              <mxPoint x="505" y="325" />
            </Array>
          </mxGeometry>
        </mxCell>
        <mxCell id="cMqqj_3ld0ghQso-aE1y-31" value="" style="endArrow=classic;html=1;" parent="1" edge="1">
          <mxGeometry width="50" height="50" relative="1" as="geometry">
            <mxPoint x="485" y="374.66999999999996" as="sourcePoint" />
            <mxPoint x="670" y="375" as="targetPoint" />
          </mxGeometry>
        </mxCell>
        <mxCell id="cMqqj_3ld0ghQso-aE1y-32" value="" style="html=1;points=[];perimeter=orthogonalPerimeter;" parent="1" vertex="1">
          <mxGeometry x="670" y="325" width="10" height="90" as="geometry" />
        </mxCell>
        <mxCell id="cMqqj_3ld0ghQso-aE1y-33" value="&lt;font style=&quot;font-size: 11px&quot;&gt;sendMessage()&lt;/font&gt;" style="text;html=1;strokeColor=none;fillColor=none;align=center;verticalAlign=middle;whiteSpace=wrap;rounded=0;" parent="1" vertex="1">
          <mxGeometry x="560" y="355" width="40" height="20" as="geometry" />
        </mxCell>
        <mxCell id="cMqqj_3ld0ghQso-aE1y-34" value="" style="html=1;points=[];perimeter=orthogonalPerimeter;" parent="1" vertex="1">
          <mxGeometry x="475" y="425" width="10" height="40" as="geometry" />
        </mxCell>
        <mxCell id="cMqqj_3ld0ghQso-aE1y-35" value="displayInfo()" style="edgeStyle=orthogonalEdgeStyle;html=1;align=left;spacingLeft=2;endArrow=block;rounded=0;entryX=1;entryY=0;" parent="1" target="cMqqj_3ld0ghQso-aE1y-34" edge="1">
          <mxGeometry relative="1" as="geometry">
            <mxPoint x="480" y="405" as="sourcePoint" />
            <Array as="points">
              <mxPoint x="505" y="405" />
            </Array>
          </mxGeometry>
        </mxCell>
        <mxCell id="cMqqj_3ld0ghQso-aE1y-37" value="alt" style="shape=umlFrame;whiteSpace=wrap;html=1;" parent="1" vertex="1">
          <mxGeometry x="175" y="465" width="560" height="460" as="geometry" />
        </mxCell>
        <mxCell id="cMqqj_3ld0ghQso-aE1y-39" value="" style="line;strokeWidth=2;html=1;perimeter=backbonePerimeter;points=[];outlineConnect=0;spacingTop=6;" parent="1" vertex="1">
          <mxGeometry x="175" y="585" width="560" height="10" as="geometry" />
        </mxCell>
        <mxCell id="cMqqj_3ld0ghQso-aE1y-40" value="[Lock on]" style="text;html=1;strokeColor=none;fillColor=none;align=center;verticalAlign=middle;whiteSpace=wrap;rounded=0;" parent="1" vertex="1">
          <mxGeometry x="230" y="515" width="60" height="20" as="geometry" />
        </mxCell>
        <mxCell id="cMqqj_3ld0ghQso-aE1y-41" value="" style="html=1;points=[];perimeter=orthogonalPerimeter;strokeWidth=2;" parent="1" vertex="1">
          <mxGeometry x="300" y="535" width="10" height="40" as="geometry" />
        </mxCell>
        <mxCell id="cMqqj_3ld0ghQso-aE1y-42" value="standByMode()" style="edgeStyle=orthogonalEdgeStyle;html=1;align=left;spacingLeft=2;endArrow=block;rounded=0;entryX=1;entryY=0;" parent="1" target="cMqqj_3ld0ghQso-aE1y-41" edge="1">
          <mxGeometry x="0.0769" y="20" relative="1" as="geometry">
            <mxPoint x="305" y="515" as="sourcePoint" />
            <Array as="points">
              <mxPoint x="330" y="515" />
            </Array>
            <mxPoint as="offset" />
          </mxGeometry>
        </mxCell>
        <mxCell id="cMqqj_3ld0ghQso-aE1y-44" value="[Lock off &amp;amp;&amp;amp; Danger]" style="text;html=1;strokeColor=none;fillColor=none;align=center;verticalAlign=middle;whiteSpace=wrap;rounded=0;" parent="1" vertex="1">
          <mxGeometry x="210" y="615" width="70" height="20" as="geometry" />
        </mxCell>
        <mxCell id="cMqqj_3ld0ghQso-aE1y-46" value="opt" style="shape=umlFrame;whiteSpace=wrap;html=1;strokeWidth=2;" parent="1" vertex="1">
          <mxGeometry x="195" y="660" width="540" height="110" as="geometry" />
        </mxCell>
        <mxCell id="cMqqj_3ld0ghQso-aE1y-47" value="&lt;div&gt;[Critical&lt;/div&gt;&lt;div&gt;Situation || &lt;br&gt;&lt;/div&gt;&lt;div&gt;shoot]&lt;br&gt;&lt;/div&gt;" style="text;html=1;strokeColor=none;fillColor=none;align=center;verticalAlign=middle;whiteSpace=wrap;rounded=0;" parent="1" vertex="1">
          <mxGeometry x="220" y="715" width="40" height="20" as="geometry" />
        </mxCell>
        <mxCell id="cMqqj_3ld0ghQso-aE1y-48" value="" style="html=1;points=[];perimeter=orthogonalPerimeter;strokeWidth=2;" parent="1" vertex="1">
          <mxGeometry x="300" y="675" width="10" height="80" as="geometry" />
        </mxCell>
        <mxCell id="cMqqj_3ld0ghQso-aE1y-49" value="" style="html=1;points=[];perimeter=orthogonalPerimeter;strokeWidth=2;" parent="1" vertex="1">
          <mxGeometry x="475" y="675" width="10" height="80" as="geometry" />
        </mxCell>
        <mxCell id="cMqqj_3ld0ghQso-aE1y-50" value="" style="endArrow=classic;html=1;" parent="1" edge="1">
          <mxGeometry width="50" height="50" relative="1" as="geometry">
            <mxPoint x="315" y="715" as="sourcePoint" />
            <mxPoint x="475" y="714.5" as="targetPoint" />
          </mxGeometry>
        </mxCell>
        <mxCell id="cMqqj_3ld0ghQso-aE1y-51" value="callBackUp()" style="text;html=1;strokeColor=none;fillColor=none;align=center;verticalAlign=middle;whiteSpace=wrap;rounded=0;" parent="1" vertex="1">
          <mxGeometry x="370" y="685" width="40" height="20" as="geometry" />
        </mxCell>
        <mxCell id="cMqqj_3ld0ghQso-aE1y-52" value="" style="html=1;points=[];perimeter=orthogonalPerimeter;strokeWidth=2;" parent="1" vertex="1">
          <mxGeometry x="670" y="675" width="10" height="80" as="geometry" />
        </mxCell>
        <mxCell id="cMqqj_3ld0ghQso-aE1y-54" value="" style="endArrow=classic;html=1;" parent="1" edge="1">
          <mxGeometry width="50" height="50" relative="1" as="geometry">
            <mxPoint x="490" y="714.5" as="sourcePoint" />
            <mxPoint x="670" y="714.5" as="targetPoint" />
          </mxGeometry>
        </mxCell>
        <mxCell id="cMqqj_3ld0ghQso-aE1y-55" value="sendMessage()" style="text;html=1;strokeColor=none;fillColor=none;align=center;verticalAlign=middle;whiteSpace=wrap;rounded=0;" parent="1" vertex="1">
          <mxGeometry x="555" y="685" width="40" height="20" as="geometry" />
        </mxCell>
        <mxCell id="cMqqj_3ld0ghQso-aE1y-60" value="" style="html=1;points=[];perimeter=orthogonalPerimeter;strokeWidth=2;" parent="1" vertex="1">
          <mxGeometry x="475" y="805" width="10" height="40" as="geometry" />
        </mxCell>
        <mxCell id="cMqqj_3ld0ghQso-aE1y-61" value="countActualState()" style="edgeStyle=orthogonalEdgeStyle;html=1;align=left;spacingLeft=2;endArrow=block;rounded=0;entryX=1;entryY=0;" parent="1" target="cMqqj_3ld0ghQso-aE1y-60" edge="1">
          <mxGeometry relative="1" as="geometry">
            <mxPoint x="480" y="785" as="sourcePoint" />
            <Array as="points">
              <mxPoint x="505" y="785" />
            </Array>
          </mxGeometry>
        </mxCell>
        <mxCell id="8y2MAkSd4nPvGJrUL0_o-1" value="&lt;b&gt;&lt;font style=&quot;font-size: 24px&quot;&gt;USAGE&lt;/font&gt;&lt;/b&gt;" style="text;html=1;strokeColor=none;fillColor=none;align=center;verticalAlign=middle;whiteSpace=wrap;rounded=0;" parent="1" vertex="1">
          <mxGeometry x="60" y="35" width="40" height="20" as="geometry" />
        </mxCell>
      </root>
    </mxGraphModel>
  </diagram>
</mxfile>
